<svg width="54" height="53" viewBox="0 0 54 53" fill="none" xmlns="http://www.w3.org/2000/svg">
<path d="M0.769775 0.480469V52.9406H53.2299V0.480469H0.769775ZM51.5004 51.2111H44.0061V26.8085H42.2767V51.2111H35.3589V46.9855H33.6294V51.2111H30.1705V43.5266H28.441V51.2111H17.6781V38.3382H15.9486V51.2111H7.457V44.2933H5.72754V51.2111H2.49923V2.20992H10.6277V30.9362H12.3571V2.20992H19.7938V14.5063H21.5232V2.20992H24.9821V6.63156H26.7116V2.20992H34.2059V18.5417H35.9353V2.20992H45.1591V10.2807H46.8885V2.20992H51.5004V51.2111Z" fill="#9D6D3D"/>
<path d="M28.4987 20.7031H26.7693V34.1122H28.4987V20.7031Z" fill="#9D6D3D"/>
</svg>
