<svg width="52" height="52" viewBox="0 0 52 52" fill="none" xmlns="http://www.w3.org/2000/svg">
<path d="M42.6831 8.94548C42.6831 4.03321 38.7319 0.0820312 33.8196 0.0820312C28.9074 0.0820312 24.9562 4.03321 24.9562 8.94548C24.9562 13.9645 28.9074 20.0515 33.8196 20.0515C38.7319 20.0515 42.6831 13.9645 42.6831 8.94548ZM27.1987 8.94548C27.1987 5.20788 30.1888 2.2178 33.9264 2.2178C37.664 2.2178 40.6541 5.20788 40.6541 8.94548C40.6541 12.8967 37.4504 17.9157 33.9264 17.9157C30.5092 18.0225 27.1987 12.8967 27.1987 8.94548Z" fill="#9D6D3D"/>
<path d="M48.4496 35.1077V34.0398C48.3428 27.2053 42.7898 21.6523 35.9554 21.6523H31.3635C28.053 21.6523 24.8494 22.9338 22.5 25.2832C20.5778 27.2053 19.4031 29.6615 18.976 32.2244C17.6945 31.6905 15.9859 29.9819 12.2483 29.4479V27.8461C12.2483 26.6714 11.2872 25.7103 10.1125 25.7103H2.53055C1.35587 25.7103 0.394775 26.6714 0.394775 27.8461V49.2038C0.394775 50.3785 1.35587 51.3396 2.53055 51.3396H10.2193C11.394 51.3396 12.3551 50.3785 12.3551 49.2038V48.5631C13.6366 48.9902 14.918 49.3106 16.3063 49.3106H32.7517C38.4115 49.3106 41.188 46.4273 49.4107 42.5829C51.4397 41.515 52.1872 39.0589 51.1193 37.0299C50.5854 36.0688 49.5175 35.4281 48.4496 35.1077ZM24.1018 26.885C26.024 24.9628 28.6937 23.7881 31.4703 23.7881H36.0622C41.722 23.7881 46.3139 28.38 46.4206 34.0398V35.1077C46.1003 35.2145 45.8867 35.3213 45.5663 35.4281L37.0233 38.5249C36.4893 38.7385 35.635 38.9521 34.7807 39.0589V38.2046C34.7807 35.3213 32.4313 32.9719 29.5481 32.9719C25.2765 32.9719 25.8105 32.9719 24.4222 32.9719C23.2475 32.9719 22.1796 32.9719 21.1118 32.8651C21.4321 30.6226 22.3932 28.4868 24.1018 26.885ZM2.53055 49.2038V27.8461H10.2193C10.2193 41.0879 10.2193 48.5631 10.2193 49.2038H2.53055ZM48.4496 40.6607C40.1201 44.6119 37.7708 47.068 32.8585 47.068H16.3063C14.918 47.068 13.5298 46.7477 12.3551 46.2137V31.7973C14.7044 32.1176 16.1995 33.1855 16.8402 33.6127C19.1896 35.2145 21.5389 35.2145 24.3154 35.2145C25.5969 35.2145 25.0629 35.2145 29.3345 35.2145C31.0431 35.2145 32.4313 36.6027 32.4313 38.3114V39.486C29.9752 39.8064 27.3055 40.02 25.5969 40.02C24.9561 40.02 24.529 40.4471 24.529 41.0879C24.529 41.7286 24.9561 42.1558 25.5969 42.1558C28.2666 42.1558 34.4603 41.7286 37.5572 40.6607L46.3139 37.4571C46.3139 37.4571 46.4206 37.4571 46.4206 37.3503C47.4885 36.8163 48.77 37.1367 49.3039 38.0978C49.8379 39.0589 49.4107 40.2336 48.4496 40.6607Z" fill="#9D6D3D"/>
</svg>
