<svg width="74" height="53" viewBox="0 0 74 53" fill="none" xmlns="http://www.w3.org/2000/svg">
<path d="M72.4331 7.01299H55.6118C55.3939 6.25585 54.9363 5.58986 54.3075 5.11505C53.6788 4.64025 52.913 4.38227 52.1252 4.37988C51.3991 4.37635 50.6889 4.59248 50.0879 4.99991C50.0249 3.8991 49.575 2.85594 48.8177 2.05448C48.0605 1.25303 47.0445 0.744795 45.949 0.619449C45.3121 0.55672 44.6692 0.629786 44.0626 0.833827C43.4561 1.03787 42.8997 1.36824 42.4302 1.80314C42.1692 2.0441 41.9369 2.31429 41.7377 2.60837C41.3158 1.99552 40.7512 1.49443 40.0926 1.14826C39.434 0.80208 38.7011 0.621203 37.9571 0.621203C37.2131 0.621203 36.4802 0.80208 35.8216 1.14826C35.163 1.49443 34.5984 1.99552 34.1765 2.60837C33.9826 2.31264 33.7527 2.04216 33.4921 1.80314C33.0202 1.36932 32.4623 1.03971 31.8547 0.835773C31.247 0.631831 30.6032 0.558125 29.9652 0.619449C28.8124 0.756521 27.7511 1.31513 26.9855 2.18776C26.2199 3.0604 25.8041 4.18537 25.8182 5.34616V7.01299H9.17409C9.08592 7.01273 8.9985 7.02913 8.91642 7.0613L1.31503 9.59778C1.15393 9.65073 1.01366 9.75319 0.914212 9.89056C0.814769 10.0279 0.76123 10.1932 0.76123 10.3628C0.76123 10.5323 0.814769 10.6976 0.914212 10.8349C1.01366 10.9723 1.15393 11.0748 1.31503 11.1277L8.91642 13.6561C9.00187 13.6684 9.08863 13.6684 9.17409 13.6561H18.8369C18.4624 14.4751 18.2675 15.3646 18.2652 16.2651V20.2913C18.2738 23.4467 19.1702 26.536 20.8519 29.2059C22.5336 31.8759 24.9328 34.0187 27.7749 35.3894C28.1431 35.5565 28.4564 35.8244 28.6787 36.1621C28.901 36.4998 29.0232 36.8935 29.0311 37.2978V37.4105C28.7849 37.5619 28.5816 37.7739 28.4406 38.0262C28.2997 38.2786 28.2257 38.5628 28.2259 38.8519V46.5016C28.2248 46.7897 28.2984 47.0732 28.4395 47.3244C28.5806 47.5756 28.7845 47.7859 29.0311 47.9349V51.961C29.0311 52.1746 29.1159 52.3794 29.267 52.5304C29.418 52.6814 29.6228 52.7663 29.8363 52.7663C30.0499 52.7663 30.2547 52.6814 30.4057 52.5304C30.5567 52.3794 30.6416 52.1746 30.6416 51.961V48.1925H37.8887C38.7503 48.6316 39.7037 48.8605 40.6707 48.8605C41.6378 48.8605 42.5911 48.6316 43.4528 48.1925H50.5711V52.0174C50.5711 52.231 50.6559 52.4358 50.8069 52.5868C50.9579 52.7378 51.1627 52.8226 51.3763 52.8226C51.5899 52.8226 51.7947 52.7378 51.9457 52.5868C52.0967 52.4358 52.1815 52.231 52.1815 52.0174V47.9912C52.4561 47.854 52.6876 47.644 52.851 47.3842C53.0143 47.1243 53.103 46.8245 53.1075 46.5177V38.9082C53.1077 38.5931 53.0185 38.2843 52.8504 38.0178C52.6822 37.7513 52.4419 37.5379 52.1574 37.4024V36.7663C52.1497 36.3147 52.285 35.8722 52.5439 35.5021C54.6361 32.6539 55.7645 29.2123 55.7648 25.6783V13.6964H72.4331C72.6467 13.6964 72.8515 13.6116 73.0025 13.4606C73.1535 13.3096 73.2383 13.1047 73.2383 12.8912V7.81822C73.2383 7.60466 73.1535 7.39985 73.0025 7.24884C72.8515 7.09783 72.6467 7.01299 72.4331 7.01299ZM4.11724 10.3628L9.30293 8.62345H25.8504V12.0859H9.30293L4.11724 10.3628ZM29.8847 46.5982C29.8668 46.5983 29.8494 46.5918 29.8361 46.5799C29.8227 46.568 29.8142 46.5516 29.8122 46.5338V38.9082C29.8122 38.889 29.8198 38.8706 29.8334 38.857C29.847 38.8434 29.8654 38.8357 29.8847 38.8357H35.8595C34.9657 39.9364 34.4778 41.3112 34.4778 42.729C34.4778 44.1469 34.9657 45.5216 35.8595 46.6223L29.8847 46.5982ZM36.101 42.6928C36.0995 41.7859 36.367 40.899 36.8699 40.1443C37.3727 39.3896 38.0882 38.8011 38.9257 38.4533C39.7633 38.1055 40.6852 38.0141 41.5747 38.1906C42.4642 38.3672 43.2814 38.8037 43.9226 39.445C44.5639 40.0862 45.0004 40.9034 45.1769 41.7929C45.3535 42.6824 45.262 43.6043 44.9143 44.4418C44.5665 45.2794 43.978 45.9949 43.2233 46.4977C42.4686 47.0006 41.5816 47.2681 40.6748 47.2665C40.0731 47.2655 39.4775 47.1459 38.922 46.9147C38.3665 46.6834 37.862 46.3451 37.4373 45.9189C37.0126 45.4927 36.676 44.987 36.4467 44.4307C36.2174 43.8744 36.1 43.2784 36.101 42.6767V42.6928ZM51.4971 38.7955C51.5071 38.8011 51.5155 38.8092 51.5214 38.8191C51.5272 38.829 51.5303 38.8403 51.5303 38.8519C51.5303 38.8634 51.5272 38.8747 51.5214 38.8846C51.5155 38.8945 51.5071 38.9026 51.4971 38.9082V46.5579C51.4971 46.575 51.4903 46.5914 51.4782 46.6035C51.4661 46.6156 51.4497 46.6223 51.4327 46.6223H45.4659C46.3611 45.5223 46.8499 44.1473 46.8499 42.729C46.8499 41.3108 46.3611 39.9358 45.4659 38.8357L51.4971 38.7955ZM51.3038 34.5117C50.8433 35.1573 50.6008 35.933 50.6113 36.726V37.185H43.5333C42.6507 36.7249 41.6701 36.4847 40.6748 36.4847C39.6794 36.4847 38.6988 36.7249 37.8162 37.185H30.6335C30.603 36.501 30.3848 35.8386 30.0027 35.2704C29.6206 34.7023 29.0894 34.2503 28.4674 33.9641C25.8968 32.7206 23.7279 30.779 22.2085 28.3612C20.6892 25.9434 19.8808 23.1468 19.8756 20.2913V16.2651C19.8706 15.3335 20.1517 14.4228 20.6809 13.6561H25.8263V19.2928C25.8263 19.5063 25.9111 19.7111 26.0621 19.8622C26.2131 20.0132 26.418 20.098 26.6315 20.098C26.8451 20.098 27.0499 20.0132 27.2009 19.8622C27.3519 19.7111 27.4367 19.5063 27.4367 19.2928V12.8509V7.81822C27.4413 7.76463 27.4413 7.71076 27.4367 7.65717V5.34616C27.4206 4.58532 27.6863 3.84537 28.1828 3.26862C28.6793 2.69187 29.3714 2.31905 30.1262 2.22186C30.5362 2.18729 30.9489 2.23825 31.3382 2.37151C31.7274 2.50477 32.0848 2.71741 32.3876 2.99598C32.6904 3.27455 32.932 3.61297 33.0972 3.98981C33.2624 4.36664 33.3475 4.77367 33.3472 5.18511C33.3472 5.39867 33.432 5.60349 33.583 5.7545C33.734 5.90551 33.9388 5.99034 34.1524 5.99034C34.3659 5.99034 34.5708 5.90551 34.7218 5.7545C34.8728 5.60349 34.9576 5.39867 34.9576 5.18511C34.9973 4.42277 35.3281 3.70475 35.8817 3.17918C36.4353 2.6536 37.1696 2.36059 37.9329 2.36059C38.6963 2.36059 39.4306 2.6536 39.9842 3.17918C40.5378 3.70475 40.8686 4.42277 40.9083 5.18511C40.9083 5.39867 40.9931 5.60349 41.1441 5.7545C41.2951 5.90551 41.4999 5.99034 41.7135 5.99034C41.9271 5.99034 42.1319 5.90551 42.2829 5.7545C42.4339 5.60349 42.5187 5.39867 42.5187 5.18511C42.519 4.77103 42.6058 4.36157 42.7736 3.98301C42.9414 3.60444 43.1865 3.26513 43.4931 2.98683C43.7974 2.70365 44.1593 2.48945 44.5539 2.35882C44.9486 2.2282 45.3667 2.18423 45.7799 2.22991C46.534 2.32526 47.2261 2.69643 47.7227 3.27186C48.2194 3.84729 48.4854 4.58622 48.4694 5.34616V8.01953C48.4694 8.23309 48.5542 8.4379 48.7053 8.58891C48.8563 8.73992 49.0611 8.82476 49.2746 8.82476C49.4882 8.82476 49.693 8.73992 49.844 8.58891C49.995 8.4379 50.0799 8.23309 50.0799 8.01953V7.87459C50.1145 7.36401 50.3416 6.88559 50.7152 6.53588C51.0888 6.18617 51.5812 5.99121 52.0929 5.99034C52.6144 5.99569 53.1142 6.19922 53.4911 6.55962C53.8679 6.92002 54.0935 7.41029 54.1221 7.93095V25.646C54.1376 28.829 53.1392 31.9342 51.2716 34.5117H51.3038ZM71.6279 12.0859H55.7648V8.62345H71.6279V12.0859Z" fill="#9D6D3D"/>
</svg>
