<svg width="53" height="54" viewBox="0 0 53 54" fill="none" xmlns="http://www.w3.org/2000/svg">
<path d="M40.6208 23.1953H28.3159V35.5002H40.6208V23.1953ZM38.8629 28.4688H35.3473V24.9531H38.8629V28.4688ZM33.5894 24.9531V28.4688H30.0738V24.9531H33.5894ZM30.0738 30.2267H33.5894V33.7423H30.0738V30.2267ZM35.3473 33.7423V30.2267H38.8629V33.7423H35.3473Z" fill="#9D6D3D"/>
<path d="M23.0424 31.9844H21.2845V37.2579H23.0424V31.9844Z" fill="#9D6D3D"/>
<path d="M52.9257 37.259C52.9257 33.7645 51.718 30.2277 49.41 30.2277C47.1019 30.2277 45.8943 33.7645 45.8943 37.259C45.8943 40.2781 46.7978 43.3236 48.5311 44.0979V46.0482H44.1365V21.4385H52.0467C52.2312 21.4385 52.411 21.3805 52.5606 21.2726C52.7103 21.1647 52.8222 21.0125 52.8806 20.8375C52.9389 20.6625 52.9407 20.4736 52.8857 20.2975C52.8307 20.1214 52.7217 19.9671 52.5741 19.8564L27.0854 0.520231C26.9327 0.404457 26.7463 0.341797 26.5546 0.341797C26.3629 0.341797 26.1765 0.404457 26.0237 0.520231L0.535077 19.8564C0.387009 19.9675 0.277772 20.1224 0.222936 20.2992C0.1681 20.476 0.170464 20.6655 0.229692 20.8409C0.288919 21.0162 0.401987 21.1684 0.552778 21.2757C0.70357 21.383 0.884388 21.44 1.06946 21.4385H8.97973V46.0482H4.58513V44.0979C6.31836 43.3236 7.22189 40.2781 7.22189 37.259C7.22189 33.7645 6.01426 30.2277 3.70622 30.2277C1.39818 30.2277 0.190541 33.7645 0.190541 37.259C0.190541 40.2781 1.09407 43.3236 2.8273 44.0979V46.0482H0.190541V53.0796H52.9257V46.0482H50.2889V44.0979C52.0221 43.3236 52.9257 40.2781 52.9257 37.259ZM1.94838 37.259C1.94838 33.9877 3.09097 31.9855 3.70622 31.9855C4.32146 31.9855 5.46405 33.9877 5.46405 37.259C5.46405 40.5304 4.32585 42.5325 3.70622 42.5325C3.08658 42.5325 1.94838 40.5304 1.94838 37.259ZM3.68248 19.6807L26.5581 2.32641L49.4337 19.6807H3.68248ZM10.7376 21.4385H42.3786V46.0482H26.5581V30.2277C26.5581 28.3629 25.8173 26.5744 24.4987 25.2558C23.18 23.9371 21.3916 23.1963 19.5268 23.1963C17.6619 23.1963 15.8735 23.9371 14.5548 25.2558C13.2362 26.5744 12.4954 28.3629 12.4954 30.2277V46.0482H10.7376V21.4385ZM24.8003 46.0482H14.2532V30.2277C14.2532 28.8291 14.8088 27.4877 15.7978 26.4987C16.7868 25.5098 18.1281 24.9542 19.5268 24.9542C20.9254 24.9542 22.2667 25.5098 23.2557 26.4987C24.2447 27.4877 24.8003 28.8291 24.8003 30.2277V46.0482ZM51.1678 51.3217H1.94838V47.8061H51.1678V51.3217ZM47.6521 37.259C47.6521 33.9877 48.7947 31.9855 49.41 31.9855C50.0252 31.9855 51.1678 33.9877 51.1678 37.259C51.1678 40.5304 50.0252 42.5325 49.41 42.5325C48.7947 42.5325 47.6521 40.5304 47.6521 37.259Z" fill="#9D6D3D"/>
</svg>
