<svg width="49" height="55" viewBox="0 0 49 55" fill="none" xmlns="http://www.w3.org/2000/svg">
<path d="M23.5541 1.42099L23.5555 1.41953C23.802 1.1567 24.1371 0.994538 24.4961 0.964383C24.7149 0.9462 24.9349 0.977677 25.1397 1.05647C25.3446 1.13528 25.5291 1.2594 25.6793 1.41955L25.6806 1.42098C31.1588 7.19674 38.9881 9.80364 46.9259 9.99771L46.9271 9.99773C47.3081 10.0057 47.6708 10.1627 47.9374 10.4349C48.204 10.7072 48.3533 11.0731 48.3532 11.4542C48.3532 33.5836 38.665 50.1884 25.0415 54.3989C24.765 54.4831 24.4697 54.4831 24.1932 54.3989C11.8751 50.5918 2.77585 36.6078 1.14368 17.6339L1.14281 17.6237L1.14134 17.6137C1.11284 17.417 1.12486 17.2166 1.17667 17.0248C1.22848 16.833 1.31899 16.6538 1.44263 16.4983C1.56627 16.3427 1.72042 16.2141 1.8956 16.1204C2.07079 16.0266 2.2633 15.9697 2.4613 15.9531C2.6593 15.9365 2.85859 15.9606 3.04694 16.0239C3.23528 16.0872 3.40867 16.1884 3.55647 16.3212C3.70426 16.454 3.82332 16.6156 3.90632 16.7962C3.98932 16.9767 4.03452 17.1723 4.03912 17.3709L4.03938 17.3819L4.04032 17.3928C5.57314 35.2118 13.9902 47.7891 24.5044 51.3766L24.6174 51.4152L24.7304 51.3766C36.066 47.508 44.8768 33.0977 45.3462 13.0807L45.354 12.7465L45.0205 12.7234C37.6698 12.214 30.4042 9.76846 24.8552 4.63028L24.6174 4.41009L24.3796 4.63028C18.3621 10.2023 10.331 12.716 2.3677 12.9108C2.1766 12.9147 1.98659 12.881 1.80851 12.8116C1.63025 12.7421 1.46742 12.6381 1.32933 12.5057C1.19124 12.3733 1.08059 12.2149 1.0037 12.0397C0.926812 11.8645 0.885185 11.6759 0.8812 11.4846C0.877215 11.2933 0.910949 11.1031 0.980476 10.9249C1.05 10.7466 1.15396 10.5838 1.28642 10.4457C1.41887 10.3077 1.57722 10.197 1.75244 10.1202C1.92765 10.0433 2.11628 10.0017 2.30757 9.99774L2.30889 9.9977C10.2466 9.80364 18.0759 7.19674 23.5541 1.42099ZM33.8087 20.0883L33.8088 20.0883L33.8136 20.083C34.0683 19.8049 34.4208 19.6364 34.7971 19.6129C35.0881 19.6003 35.3762 19.6753 35.6242 19.8281C35.8729 19.9815 36.0698 20.2061 36.1893 20.4728C36.3087 20.7395 36.3452 21.0359 36.2939 21.3236C36.2427 21.6113 36.1061 21.8769 35.9019 22.0859L35.8991 22.0889L23.254 35.3361L23.2539 35.3362C23.1203 35.4763 22.9602 35.5883 22.7829 35.6658C22.6055 35.7432 22.4145 35.7846 22.221 35.7874C22.0275 35.7903 21.8354 35.7545 21.6558 35.6822C21.4767 35.6101 21.3136 35.5031 21.1762 35.3674C21.1759 35.3671 21.1756 35.3668 21.1754 35.3665L14.5531 28.7443C14.4176 28.6087 14.3101 28.4478 14.2367 28.2708C14.1634 28.0937 14.1256 27.9039 14.1256 27.7122C14.1256 27.5205 14.1634 27.3307 14.2367 27.1536C14.3101 26.9766 14.4176 26.8157 14.5531 26.6801C14.6887 26.5446 14.8496 26.4371 15.0266 26.3637C15.2037 26.2904 15.3935 26.2526 15.5852 26.2526C15.7769 26.2526 15.9667 26.2904 16.1437 26.3637C16.3208 26.4371 16.4817 26.5446 16.6173 26.6801L21.9425 32.0054L22.1959 32.2587L22.4432 31.9995L33.8087 20.0883Z" fill="#9D6D3D" stroke="#EFEAE5" stroke-width="0.7"/>
</svg>
