<svg width="58" height="53" viewBox="0 0 58 53" fill="none" xmlns="http://www.w3.org/2000/svg">
<path d="M13.9181 6.39102H30.7977V8.08875H13.9181V6.39102Z" fill="#9D6D3D" stroke="#EFEAE5" stroke-width="0.2"/>
<path d="M13.9181 10.1859H30.7977V11.8837H13.9181V10.1859Z" fill="#9D6D3D" stroke="#EFEAE5" stroke-width="0.2"/>
<path d="M13.9181 13.9809H26.0534V15.6786H13.9181V13.9809Z" fill="#9D6D3D" stroke="#EFEAE5" stroke-width="0.2"/>
<path d="M8.22485 28.2529V21.4727V21.3727H8.12485H3.38053C1.82269 21.3727 0.633936 20.1839 0.633936 18.6261V3.44425C0.633936 1.88641 1.82269 0.697656 3.38053 0.697656H31.8465C33.4043 0.697656 34.5931 1.88641 34.5931 3.44425V18.6261C34.5931 20.1839 33.4043 21.3727 31.8465 21.3727H15.1465H15.105L15.0757 21.402L8.22485 28.2529ZM3.38053 19.675H9.92258V23.9397V24.1812L10.0933 24.0104L14.4288 19.675H31.8465C32.1539 19.675 32.4178 19.5721 32.6051 19.3847C32.7924 19.1974 32.8953 18.9335 32.8953 18.6261V3.44425C32.8953 3.13687 32.7924 2.87294 32.6051 2.68561C32.4178 2.49828 32.1539 2.39539 31.8465 2.39539H3.38053C3.07315 2.39539 2.80922 2.49828 2.62189 2.68561C2.43456 2.87294 2.33166 3.13687 2.33166 3.44425V18.6261C2.33166 18.9335 2.43456 19.1974 2.62189 19.3847C2.80922 19.5721 3.07315 19.675 3.38053 19.675Z" fill="#9D6D3D" stroke="#EFEAE5" stroke-width="0.2"/>
<path d="M8.12491 9.03655C6.56707 9.03655 5.37832 7.8478 5.37832 6.28995C5.37832 4.73211 6.56707 3.54336 8.12491 3.54336C9.68276 3.54336 10.8715 4.73211 10.8715 6.28995C10.8715 7.8478 9.68276 9.03655 8.12491 9.03655ZM8.12491 5.24109C7.81753 5.24109 7.55361 5.34399 7.36628 5.53132C7.17895 5.71865 7.07605 5.98257 7.07605 6.28995C7.07605 6.59734 7.17895 6.86126 7.36628 7.04859C7.55361 7.23592 7.81753 7.33882 8.12491 7.33882C8.4323 7.33882 8.69622 7.23592 8.88355 7.04859C9.07088 6.86126 9.17378 6.59734 9.17378 6.28995C9.17378 5.98257 9.07088 5.71865 8.88355 5.53132C8.69622 5.34399 8.4323 5.24109 8.12491 5.24109Z" fill="#9D6D3D" stroke="#EFEAE5" stroke-width="0.2"/>
<path d="M6.12708 13.8814V18.5257H4.42935V13.8814C4.42935 11.8491 6.09253 10.1859 8.1248 10.1859C10.1571 10.1859 11.8203 11.8491 11.8203 13.8814V18.5257H7.27594V16.828H10.0225H10.1225V16.728V13.8814C10.1225 12.7824 9.22378 11.8837 8.1248 11.8837C7.02583 11.8837 6.12708 12.7824 6.12708 13.8814Z" fill="#9D6D3D" stroke="#EFEAE5" stroke-width="0.2"/>
<path d="M49.7749 28.1153V34.8954L42.924 28.0445L42.8947 28.0153H42.8533H26.1532C24.5954 28.0153 23.4066 26.8265 23.4066 25.2687V23.4709H25.1044V25.2687C25.1044 25.576 25.2073 25.84 25.3946 26.0273C25.5819 26.2146 25.8459 26.3175 26.1532 26.3175H43.5709L47.9064 30.653L48.0771 30.8237V30.5823V26.3175H54.6192C54.9266 26.3175 55.1905 26.2146 55.3778 26.0273C55.5651 25.84 55.668 25.576 55.668 25.2687V10.0868C55.668 9.77944 55.5651 9.51552 55.3778 9.32819C55.1905 9.14086 54.9266 9.03796 54.6192 9.03796H36.6907V7.34023H54.6192C56.177 7.34023 57.3658 8.52899 57.3658 10.0868V25.2687C57.3658 26.8265 56.177 28.0153 54.6192 28.0153H49.8749H49.7749V28.1153Z" fill="#9D6D3D" stroke="#EFEAE5" stroke-width="0.2"/>
<path d="M36.6908 13.0336H44.0817V14.7313H36.6908V13.0336Z" fill="#9D6D3D" stroke="#EFEAE5" stroke-width="0.2"/>
<path d="M36.6908 16.8285H44.0817V18.5262H36.6908V16.8285Z" fill="#9D6D3D" stroke="#EFEAE5" stroke-width="0.2"/>
<path d="M38.5885 20.6234H44.0817V22.3212H38.5885V20.6234Z" fill="#9D6D3D" stroke="#EFEAE5" stroke-width="0.2"/>
<path d="M49.8749 15.6791C48.3171 15.6791 47.1283 14.4904 47.1283 12.9325C47.1283 11.3747 48.3171 10.1859 49.8749 10.1859C51.4328 10.1859 52.6215 11.3747 52.6215 12.9325C52.6215 14.4904 51.4328 15.6791 49.8749 15.6791ZM49.8749 11.8837C49.5675 11.8837 49.3036 11.9866 49.1163 12.1739C48.9289 12.3612 48.826 12.6251 48.826 12.9325C48.826 13.2399 48.9289 13.5038 49.1163 13.6912C49.3036 13.8785 49.5675 13.9814 49.8749 13.9814C50.1823 13.9814 50.4462 13.8785 50.6336 13.6912C50.8209 13.5038 50.9238 13.2399 50.9238 12.9325C50.9238 12.6251 50.8209 12.3612 50.6336 12.1739C50.4462 11.9866 50.1823 11.8837 49.8749 11.8837Z" fill="#9D6D3D" stroke="#EFEAE5" stroke-width="0.2"/>
<path d="M47.9771 23.4706H50.7237V25.1683H46.1793V20.524C46.1793 18.4917 47.8425 16.8285 49.8748 16.8285C51.9071 16.8285 53.5703 18.4917 53.5703 20.524V25.1683H51.8725V20.524C51.8725 19.425 50.9738 18.5262 49.8748 18.5262C48.7758 18.5262 47.8771 19.425 47.8771 20.524V23.3706V23.4706H47.9771Z" fill="#9D6D3D" stroke="#EFEAE5" stroke-width="0.2"/>
<path d="M18.6624 39.6394V32.8592V32.7592H18.5624H13.818C12.2602 32.7592 11.0714 31.5705 11.0714 30.0126V27.266H12.7692V30.0126C12.7692 30.32 12.8721 30.5839 13.0594 30.7712C13.2467 30.9586 13.5106 31.0615 13.818 31.0615H20.3601V35.3263V35.5677L20.5308 35.397L24.8663 31.0615H42.184V32.7592H25.584H25.5425L25.5132 32.7885L18.6624 39.6394Z" fill="#9D6D3D" stroke="#EFEAE5" stroke-width="0.2"/>
<path d="M46.1277 50.5157L46.0795 50.4892L46.0313 50.5157L42.2375 52.6022C41.8824 52.7792 41.5546 52.7688 41.311 52.5252C41.0527 52.2669 40.9662 51.9247 41.0521 51.5784L42.285 47.4055L42.3031 47.3445L42.2554 47.3023L38.9367 44.3629C38.6796 44.1043 38.594 43.7622 38.6804 43.4162C38.76 43.0981 39.0836 42.9226 39.4374 42.9226H43.6124H43.6779L43.7041 42.8626L45.3161 39.1645C45.4048 38.9878 45.5126 38.8611 45.6368 38.7783C45.7609 38.6955 45.9072 38.6527 46.0795 38.6527C46.4332 38.6527 46.7569 38.8282 46.8364 39.1463L46.8385 39.1544L46.8418 39.162L48.4548 42.8626L48.481 42.9226H48.5465H52.7215C52.8871 42.9226 53.0574 42.9852 53.1983 43.0828C53.3388 43.18 53.4398 43.3048 53.4794 43.4201C53.5643 43.7647 53.4784 44.1053 53.2222 44.3629L49.9035 47.3023L49.8559 47.3445L49.8739 47.4055L51.1068 51.5784C51.1915 51.9196 51.1087 52.257 50.8591 52.5139C50.6699 52.6084 50.5068 52.6857 50.3494 52.6857C50.2525 52.6857 50.19 52.6854 50.1286 52.6752C50.07 52.6654 50.0088 52.6458 49.9214 52.6022L46.1277 50.5157ZM45.9886 41.8321L44.9455 44.1078C44.8567 44.2849 44.7488 44.4119 44.6244 44.4948C44.5003 44.5776 44.354 44.6204 44.1817 44.6204H41.9993H41.7273L41.9346 44.7965L43.8292 46.4069C44.0901 46.6698 44.1673 47.0094 44.0869 47.2507L44.0862 47.2529L43.3271 49.7199L43.2532 49.96L43.4719 49.8364L45.6313 48.6158H45.6322H45.6332H45.6343H45.6353H45.6364H45.6375H45.6385H45.6396H45.6406H45.6416H45.6427H45.6437H45.6448H45.6458H45.6468H45.6479H45.652H45.653H45.654H45.655H45.6561H45.6571H45.6581H45.6591H45.6601H45.6611H45.6621H45.6631H45.6641H45.6651H45.6662H45.6671H45.6681H45.6691H45.6701H45.6711H45.6721H45.6731H45.6741H45.6751H45.6761H45.6771H45.678H45.679H45.68H45.681H45.6819H45.6829H45.6839H45.6849H45.6858H45.6868H45.6878H45.6887H45.6897H45.6907H45.6916H45.6926H45.6935H45.6945H45.6954H45.6964H45.6973H45.6983H45.6992H45.7002H45.7011H45.7021H45.703H45.704H45.7049H45.7058H45.7068H45.7077H45.7087H45.7096H45.7105H45.7115H45.7124H45.7133H45.7142H45.7152H45.7161H45.717H45.7179H45.7189H45.7198H45.7207H45.7216H45.7225H45.7234H45.7244H45.7253H45.7262H45.7271H45.728H45.7289H45.7298H45.7307H45.7316H45.7325H45.7334H45.7343H45.7352H45.7361H45.737H45.7379H45.7388H45.7397H45.7406H45.7415H45.7424H45.7433H45.7442H45.7451H45.746H45.7469H45.7477H45.7486H45.7495H45.7504H45.7513H45.7522H45.753H45.7539H45.7548H45.7557H45.7566H45.7574H45.7583H45.7592H45.7601H45.7609H45.7618H45.7627H45.7636H45.7644H45.7653H45.7662H45.767H45.7679H45.7688H45.7696H45.7705H45.7714H45.7722H45.7731H45.7739H45.7748H45.7757H45.7765H45.7774H45.7782H45.7791H45.78H45.7808H45.7817H45.7825H45.7834H45.7842H45.7851H45.7859H45.7868H45.7877H45.7885H45.7894H45.7902H45.7911H45.7919H45.7928H45.7936H45.7945H45.7953H45.7961H45.797H45.7978H45.7987H45.7995H45.8004H45.8012H45.8021H45.8029H45.8038H45.8046H45.8054H45.8063H45.8071H45.808H45.8088H45.8096H45.8105H45.8113H45.8122H45.813H45.8138H45.8147H45.8155H45.8164H45.8172H45.818H45.8189H45.8197H45.8205H45.8214H45.8222H45.8231H45.8239H45.8247H45.8256H45.8264H45.8272H45.8281H45.8289H45.8297H45.8306H45.8314H45.8322H45.8331H45.8339H45.8347H45.8356H45.8364H45.8372H45.8381H45.8389H45.8397H45.8406H45.8414H45.8423H45.8431H45.8439H45.8448H45.8456H45.8464H45.8473H45.8481H45.8489H45.8498H45.8506H45.8514H45.8523H45.8531H45.8539H45.8548H45.8556H45.8564H45.8573H45.8581H45.8589H45.8598H45.8606H45.8614H45.8623H45.8631H45.864H45.8648H45.8656H45.8665H45.8673H45.8681H45.869H45.8698H45.8707H45.8715H45.8723H45.8732H45.874H45.8749H45.8757H45.8765H45.8774H45.8782H45.8791H45.8799H45.8808H45.8816H45.8824H45.8833H45.8841H45.885H45.8858H45.8867H45.8875H45.8884H45.8892H45.89H45.8909H45.8917H45.8926H45.8934H45.8943H45.8951H45.896H45.8968H45.8977H45.8986H45.8994H45.9003H45.9011H45.902H45.9028H45.9037H45.9045H45.9054H45.9063H45.9071H45.908H45.9088H45.9097H45.9166H45.9175H45.9183H45.9192H45.9201H45.9209H45.9218H45.9227H45.9236H45.9244H45.9253H45.9262H45.9271H45.9279H45.9288H45.9297H45.9306H45.9315H45.9323H45.9332H45.9341H45.935H45.9359H45.9368H45.9376H45.9385H45.9394H45.9403H45.9412H45.9421H45.943H45.9439H45.9448H45.9457H45.9466H45.9475H45.9484H45.9493H45.9502H45.9511H45.952H45.9529H45.9538H45.9547H45.9556H45.9565H45.9574H45.9583H45.9592H45.9601H45.9611H45.962H45.9629H45.9638H45.9647H45.9656H45.9666H45.9675H45.9684H45.9693H45.9703H45.9712H45.9721H45.973H45.974H45.9749H45.9758H45.9768H45.9777H45.9787H45.9796H45.9805H45.9815H45.9824H45.9834H45.9843H45.9853H45.9862H45.9872H45.9881H45.9891H45.99H45.991H45.9919H45.9929H45.9938H45.9948H45.9958H45.9967H45.9977H45.9987H45.9996H46.0006H46.0016H46.0026H46.0035H46.0045H46.0055H46.0065H46.0074H46.0084H46.0094H46.0104H46.0114H46.0124H46.0134H46.0144H46.0154H46.0164H46.0174H46.0184H46.0194H46.0204H46.0214H46.0224H46.0234H46.0244H46.0254H46.0264H46.0274H46.0284H46.0295H46.0305H46.0315H46.0325H46.0335H46.0346H46.0356H46.0366H46.0377H46.0387H46.0397H46.0408H46.0418H46.0429H46.0439H46.0449H46.046H46.047H46.0481H46.0492H46.0502H46.0513H46.0523H46.0534H46.0544H46.0555H46.0566H46.0577H46.0587H46.0598H46.0609H46.0619H46.063H46.0641H46.0652H46.0663H46.0674H46.0685H46.0695H46.0706H46.0717H46.0728H46.0739H46.075H46.0761H46.0772H46.0784H46.0795C46.1763 48.6158 46.2388 48.6161 46.3002 48.6263C46.3587 48.6361 46.4197 48.6556 46.5069 48.699L48.6871 49.9313L48.9057 50.0549L48.8319 49.8148L48.0736 47.3504C47.9862 46.9976 48.0799 46.6698 48.3173 46.5115L48.3177 46.5121L48.3266 46.5045L50.2243 44.8914L50.4316 44.7152H50.1596H47.9772C47.6234 44.7152 47.2998 44.5398 47.2202 44.2217L47.2182 44.2134L47.2147 44.2056L46.171 41.8335L46.0813 41.6297L45.9886 41.8321Z" fill="#9D6D3D" stroke="#EFEAE5" stroke-width="0.2"/>
<path d="M11.9685 50.5157L11.9203 50.4892L11.8721 50.5157L8.07835 52.6022C7.72322 52.7792 7.39536 52.7688 7.15176 52.5252C6.89347 52.2669 6.80702 51.9247 6.89291 51.5784L8.12582 47.4055L8.14385 47.3445L8.09622 47.3023L4.7752 44.3608L4.76536 44.3521L4.75361 44.3463C4.4359 44.1874 4.34188 43.7802 4.51367 43.4367L4.51858 43.4268L4.52125 43.4162C4.60077 43.0981 4.92443 42.9226 5.27821 42.9226H9.45322H9.51871L9.54488 42.8626L11.1569 39.1645C11.2456 38.9878 11.3534 38.8611 11.4776 38.7783C11.6017 38.6955 11.748 38.6527 11.9203 38.6527C12.274 38.6527 12.5977 38.8282 12.6772 39.1463L12.6792 39.1544L12.6826 39.162L14.2956 42.8626L14.3218 42.9226H14.3873H18.5623C18.7279 42.9226 18.8982 42.9852 19.0391 43.0828C19.1796 43.18 19.2806 43.3048 19.3202 43.4201C19.4051 43.7647 19.3192 44.1053 19.063 44.3629L15.7443 47.3023L15.6967 47.3445L15.7147 47.4055L16.9476 51.5784C17.0323 51.9196 16.9495 52.257 16.6999 52.5139C16.5107 52.6084 16.3476 52.6857 16.1902 52.6857C16.0933 52.6857 16.0308 52.6854 15.9694 52.6752C15.9108 52.6654 15.8496 52.6458 15.7622 52.6022L11.9685 50.5157ZM11.8294 41.8321L10.7863 44.1078C10.6975 44.2849 10.5896 44.4119 10.4652 44.4948C10.3411 44.5776 10.1948 44.6204 10.0225 44.6204H7.84015H7.56809L7.77538 44.7965L9.66996 46.4069C9.93093 46.6698 10.0081 47.0094 9.92767 47.2507L9.92696 47.2529L9.16786 49.7199L9.094 49.96L9.31265 49.8364L11.4721 48.6158H11.473H11.474H11.4751H11.4761H11.4772H11.4783H11.4793H11.4803H11.4814H11.4824H11.4835H11.4845H11.4856H11.4866H11.4876H11.4887H11.4928H11.4938H11.4948H11.4958H11.4969H11.4979H11.4989H11.4999H11.5009H11.5019H11.5029H11.5039H11.5049H11.5059H11.5069H11.5079H11.5089H11.5099H11.5109H11.5119H11.5129H11.5139H11.5149H11.5159H11.5169H11.5179H11.5188H11.5198H11.5208H11.5218H11.5227H11.5237H11.5247H11.5257H11.5266H11.5276H11.5286H11.5295H11.5305H11.5315H11.5324H11.5334H11.5343H11.5353H11.5362H11.5372H11.5381H11.5391H11.54H11.541H11.5419H11.5429H11.5438H11.5448H11.5457H11.5466H11.5476H11.5485H11.5495H11.5504H11.5513H11.5523H11.5532H11.5541H11.555H11.556H11.5569H11.5578H11.5587H11.5597H11.5606H11.5615H11.5624H11.5633H11.5642H11.5652H11.5661H11.567H11.5679H11.5688H11.5697H11.5706H11.5715H11.5724H11.5733H11.5742H11.5751H11.576H11.5769H11.5778H11.5787H11.5796H11.5805H11.5814H11.5823H11.5832H11.5841H11.585H11.5859H11.5868H11.5877H11.5885H11.5894H11.5903H11.5912H11.5921H11.593H11.5938H11.5947H11.5956H11.5965H11.5974H11.5982H11.5991H11.6H11.6009H11.6017H11.6026H11.6035H11.6044H11.6052H11.6061H11.607H11.6078H11.6087H11.6096H11.6104H11.6113H11.6122H11.613H11.6139H11.6147H11.6156H11.6165H11.6173H11.6182H11.619H11.6199H11.6208H11.6216H11.6225H11.6233H11.6242H11.625H11.6259H11.6267H11.6276H11.6285H11.6293H11.6302H11.631H11.6319H11.6327H11.6336H11.6344H11.6352H11.6361H11.6369H11.6378H11.6386H11.6395H11.6403H11.6412H11.642H11.6429H11.6437H11.6445H11.6454H11.6462H11.6471H11.6479H11.6488H11.6496H11.6504H11.6513H11.6521H11.653H11.6538H11.6546H11.6555H11.6563H11.6572H11.658H11.6588H11.6597H11.6605H11.6613H11.6622H11.663H11.6638H11.6647H11.6655H11.6664H11.6672H11.668H11.6689H11.6697H11.6705H11.6714H11.6722H11.673H11.6739H11.6747H11.6755H11.6764H11.6772H11.678H11.6789H11.6797H11.6805H11.6814H11.6822H11.683H11.6839H11.6847H11.6855H11.6864H11.6872H11.6881H11.6889H11.6897H11.6906H11.6914H11.6922H11.6931H11.6939H11.6947H11.6956H11.6964H11.6972H11.6981H11.6989H11.6997H11.7006H11.7014H11.7022H11.7031H11.7039H11.7048H11.7056H11.7064H11.7073H11.7081H11.7089H11.7098H11.7106H11.7115H11.7123H11.7131H11.714H11.7148H11.7157H11.7165H11.7173H11.7182H11.719H11.7199H11.7207H11.7215H11.7224H11.7232H11.7241H11.7249H11.7258H11.7266H11.7275H11.7283H11.7292H11.73H11.7308H11.7317H11.7325H11.7334H11.7342H11.7351H11.7359H11.7368H11.7376H11.7385H11.7393H11.7402H11.7411H11.7419H11.7428H11.7436H11.7445H11.7453H11.7462H11.747H11.7479H11.7488H11.7496H11.7505H11.7574H11.7583H11.7591H11.76H11.7609H11.7617H11.7626H11.7635H11.7644H11.7652H11.7661H11.767H11.7679H11.7687H11.7696H11.7705H11.7714H11.7723H11.7731H11.774H11.7749H11.7758H11.7767H11.7776H11.7784H11.7793H11.7802H11.7811H11.782H11.7829H11.7838H11.7847H11.7856H11.7865H11.7874H11.7883H11.7892H11.7901H11.791H11.7919H11.7928H11.7937H11.7946H11.7955H11.7964H11.7973H11.7982H11.7991H11.8H11.8009H11.8019H11.8028H11.8037H11.8046H11.8055H11.8064H11.8074H11.8083H11.8092H11.8101H11.8111H11.812H11.8129H11.8138H11.8148H11.8157H11.8166H11.8176H11.8185H11.8195H11.8204H11.8213H11.8223H11.8232H11.8242H11.8251H11.8261H11.827H11.828H11.8289H11.8299H11.8308H11.8318H11.8327H11.8337H11.8346H11.8356H11.8366H11.8375H11.8385H11.8395H11.8404H11.8414H11.8424H11.8434H11.8443H11.8453H11.8463H11.8473H11.8482H11.8492H11.8502H11.8512H11.8522H11.8532H11.8542H11.8552H11.8562H11.8572H11.8581H11.8591H11.8601H11.8612H11.8622H11.8632H11.8642H11.8652H11.8662H11.8672H11.8682H11.8692H11.8703H11.8713H11.8723H11.8733H11.8743H11.8754H11.8764H11.8774H11.8785H11.8795H11.8805H11.8816H11.8826H11.8837H11.8847H11.8857H11.8868H11.8878H11.8889H11.8899H11.891H11.8921H11.8931H11.8942H11.8952H11.8963H11.8974H11.8984H11.8995H11.9006H11.9017H11.9027H11.9038H11.9049H11.906H11.9071H11.9082H11.9093H11.9103H11.9114H11.9125H11.9136H11.9147H11.9158H11.9169H11.918H11.9192H11.9203C12.0171 48.6158 12.0796 48.6161 12.141 48.6263C12.1995 48.6361 12.2605 48.6556 12.3477 48.699L14.5279 49.9313L14.7465 50.0549L14.6727 49.8148L13.9144 47.3504C13.827 46.9976 13.9207 46.6698 14.1581 46.5115L14.1585 46.5121L14.1674 46.5045L16.0651 44.8914L16.2724 44.7152H16.0004H13.818C13.4642 44.7152 13.1406 44.5398 13.061 44.2217L13.059 44.2134L13.0555 44.2056L12.0118 41.8335L11.9221 41.6297L11.8294 41.8321Z" fill="#9D6D3D" stroke="#EFEAE5" stroke-width="0.2"/>
<path d="M29.0481 50.5157L28.9999 50.4892L28.9517 50.5157L25.158 52.6022C24.8028 52.7792 24.475 52.7688 24.2314 52.5252C23.9731 52.2669 23.8866 51.9247 23.9725 51.5784L25.2054 47.4055L25.2235 47.3445L25.1758 47.3023L21.8571 44.3629C21.6 44.1043 21.5144 43.7622 21.6009 43.4162C21.6804 43.0981 22.004 42.9226 22.3578 42.9226H26.5328H26.5983L26.6245 42.8626L28.2365 39.1645C28.3252 38.9878 28.433 38.8611 28.5572 38.7783C28.6813 38.6955 28.8276 38.6527 28.9999 38.6527C29.3537 38.6527 29.6773 38.8282 29.7568 39.1463L29.7589 39.1544L29.7622 39.162L31.3753 42.8626L31.4014 42.9226H31.4669H35.6419C35.8075 42.9226 35.9778 42.9852 36.1187 43.0828C36.2592 43.18 36.3602 43.3048 36.3999 43.4201C36.4847 43.7647 36.3988 44.1053 36.1426 44.3629L32.8239 47.3023L32.7763 47.3445L32.7943 47.4055L34.0272 51.5784C34.1119 51.9196 34.0291 52.257 33.7795 52.5139C33.5903 52.6084 33.4272 52.6857 33.2698 52.6857C33.1729 52.6857 33.1105 52.6854 33.049 52.6752C32.9904 52.6654 32.9292 52.6458 32.8418 52.6022L29.0481 50.5157ZM28.909 41.8321L27.8659 44.1078C27.7771 44.2849 27.6692 44.4119 27.5448 44.4948C27.4207 44.5776 27.2744 44.6204 27.1021 44.6204H24.9198H24.6477L24.855 44.7965L26.7496 46.4069C27.0105 46.6698 27.0877 47.0094 27.0073 47.2507L27.0066 47.2529L26.2475 49.7199L26.1736 49.96L26.3923 49.8364L28.5517 48.6158H28.5526H28.5536H28.5547H28.5558H28.5568H28.5579H28.5589H28.56H28.561H28.562H28.5631H28.5641H28.5652H28.5662H28.5672H28.5683H28.5724H28.5734H28.5744H28.5755H28.5765H28.5775H28.5785H28.5795H28.5805H28.5815H28.5825H28.5836H28.5846H28.5856H28.5866H28.5876H28.5886H28.5896H28.5905H28.5915H28.5925H28.5935H28.5945H28.5955H28.5965H28.5975H28.5984H28.5994H28.6004H28.6014H28.6024H28.6033H28.6043H28.6053H28.6062H28.6072H28.6082H28.6091H28.6101H28.6111H28.612H28.613H28.6139H28.6149H28.6158H28.6168H28.6178H28.6187H28.6197H28.6206H28.6215H28.6225H28.6234H28.6244H28.6253H28.6263H28.6272H28.6281H28.6291H28.63H28.6309H28.6319H28.6328H28.6337H28.6346H28.6356H28.6365H28.6374H28.6383H28.6393H28.6402H28.6411H28.642H28.6429H28.6439H28.6448H28.6457H28.6466H28.6475H28.6484H28.6493H28.6502H28.6511H28.652H28.6529H28.6538H28.6548H28.6557H28.6566H28.6575H28.6583H28.6592H28.6601H28.661H28.6619H28.6628H28.6637H28.6646H28.6655H28.6664H28.6673H28.6682H28.669H28.6699H28.6708H28.6717H28.6726H28.6735H28.6743H28.6752H28.6761H28.677H28.6778H28.6787H28.6796H28.6805H28.6813H28.6822H28.6831H28.684H28.6848H28.6857H28.6866H28.6874H28.6883H28.6892H28.69H28.6909H28.6918H28.6926H28.6935H28.6944H28.6952H28.6961H28.6969H28.6978H28.6987H28.6995H28.7004H28.7012H28.7021H28.7029H28.7038H28.7047H28.7055H28.7064H28.7072H28.7081H28.7089H28.7098H28.7106H28.7115H28.7123H28.7132H28.714H28.7149H28.7157H28.7166H28.7174H28.7182H28.7191H28.7199H28.7208H28.7216H28.7225H28.7233H28.7242H28.725H28.7258H28.7267H28.7275H28.7284H28.7292H28.7301H28.7309H28.7317H28.7326H28.7334H28.7342H28.7351H28.7359H28.7368H28.7376H28.7384H28.7393H28.7401H28.741H28.7418H28.7426H28.7435H28.7443H28.7451H28.746H28.7468H28.7476H28.7485H28.7493H28.7501H28.751H28.7518H28.7526H28.7535H28.7543H28.7552H28.756H28.7568H28.7577H28.7585H28.7593H28.7602H28.761H28.7618H28.7627H28.7635H28.7643H28.7652H28.766H28.7668H28.7677H28.7685H28.7693H28.7702H28.771H28.7718H28.7727H28.7735H28.7743H28.7752H28.776H28.7768H28.7777H28.7785H28.7793H28.7802H28.781H28.7819H28.7827H28.7835H28.7844H28.7852H28.786H28.7869H28.7877H28.7886H28.7894H28.7902H28.7911H28.7919H28.7927H28.7936H28.7944H28.7953H28.7961H28.7969H28.7978H28.7986H28.7995H28.8003H28.8012H28.802H28.8028H28.8037H28.8045H28.8054H28.8062H28.8071H28.8079H28.8088H28.8096H28.8105H28.8113H28.8122H28.813H28.8139H28.8147H28.8156H28.8164H28.8173H28.8181H28.819H28.8198H28.8207H28.8215H28.8224H28.8232H28.8241H28.8249H28.8258H28.8267H28.8275H28.8284H28.8292H28.8301H28.837H28.8379H28.8387H28.8396H28.8405H28.8414H28.8422H28.8431H28.844H28.8448H28.8457H28.8466H28.8475H28.8483H28.8492H28.8501H28.851H28.8519H28.8527H28.8536H28.8545H28.8554H28.8563H28.8572H28.858H28.8589H28.8598H28.8607H28.8616H28.8625H28.8634H28.8643H28.8652H28.8661H28.867H28.8679H28.8688H28.8697H28.8706H28.8715H28.8724H28.8733H28.8742H28.8751H28.876H28.8769H28.8778H28.8787H28.8796H28.8805H28.8815H28.8824H28.8833H28.8842H28.8851H28.8861H28.887H28.8879H28.8888H28.8897H28.8907H28.8916H28.8925H28.8935H28.8944H28.8953H28.8963H28.8972H28.8981H28.8991H28.9H28.9009H28.9019H28.9028H28.9038H28.9047H28.9057H28.9066H28.9076H28.9085H28.9095H28.9104H28.9114H28.9123H28.9133H28.9143H28.9152H28.9162H28.9171H28.9181H28.9191H28.92H28.921H28.922H28.923H28.9239H28.9249H28.9259H28.9269H28.9279H28.9288H28.9298H28.9308H28.9318H28.9328H28.9338H28.9348H28.9358H28.9368H28.9378H28.9388H28.9398H28.9408H28.9418H28.9428H28.9438H28.9448H28.9458H28.9468H28.9478H28.9488H28.9499H28.9509H28.9519H28.9529H28.954H28.955H28.956H28.957H28.9581H28.9591H28.9601H28.9612H28.9622H28.9633H28.9643H28.9654H28.9664H28.9675H28.9685H28.9696H28.9706H28.9717H28.9727H28.9738H28.9749H28.9759H28.977H28.9781H28.9791H28.9802H28.9813H28.9824H28.9834H28.9845H28.9856H28.9867H28.9878H28.9889H28.99H28.991H28.9921H28.9932H28.9943H28.9954H28.9965H28.9977H28.9988H28.9999C29.0967 48.6158 29.1592 48.6161 29.2207 48.6263C29.2791 48.6361 29.3402 48.6556 29.4273 48.699L31.6075 49.9313L31.8261 50.0549L31.7523 49.8148L30.994 47.3504C30.9066 46.9976 31.0003 46.6698 31.2377 46.5115L31.2381 46.5121L31.247 46.5045L33.1448 44.8914L33.352 44.7152H33.08H30.8976C30.5438 44.7152 30.2202 44.5398 30.1406 44.2217L30.1386 44.2134L30.1352 44.2056L29.0914 41.8335L29.0017 41.6297L28.909 41.8321Z" fill="#9D6D3D" stroke="#EFEAE5" stroke-width="0.2"/>
</svg>
