<svg width="63" height="63" viewBox="0 0 63 63" fill="none" xmlns="http://www.w3.org/2000/svg">
<path d="M50.6955 55.6194V55.4158L50.5344 55.5403C45.0954 59.7431 38.4208 62.0914 31.4995 62.0914C14.4427 62.0914 0.599512 48.2482 0.599512 31.1914C0.599512 14.1346 14.4427 0.291406 31.4995 0.291406C48.5569 0.291406 62.5231 14.1351 62.3995 31.1907V31.1914C62.3995 37.8329 60.3192 44.2292 56.2799 49.6506L54.3308 48.1601C58.0253 43.2003 59.9955 37.3805 59.9955 31.1914C59.9955 15.5116 47.1782 2.81941 31.4995 2.81941C15.8209 2.81941 3.00351 15.5116 3.00351 31.1914C3.00351 46.8709 15.8206 59.6874 31.6235 59.6874C38.095 59.6874 44.3169 57.4472 49.4182 53.3413L49.6392 53.1634H49.3555H45.2395V50.6354H53.2235V58.6194H50.6955V55.6194Z" fill="#9D6D3D" stroke="#EFEAE5" stroke-width="0.2"/>
<path d="M22.7956 21.2706C22.7956 18.7218 24.8588 16.6586 27.4076 16.6586H35.7156C38.2643 16.6586 40.3276 18.7218 40.3276 21.2706V41.2346C40.3276 43.7834 38.2643 45.8466 35.7156 45.8466H27.4076C24.8588 45.8466 22.7956 43.7834 22.7956 41.2346V21.2706ZM37.7996 41.2346V21.2706C37.7996 20.0954 36.7587 19.1866 35.7156 19.1866H27.4076C26.2363 19.1866 25.3236 20.0994 25.3236 21.2706V41.2346C25.3236 42.4058 26.2363 43.3186 27.4076 43.3186H35.7156C36.8868 43.3186 37.7996 42.4058 37.7996 41.2346Z" fill="#9D6D3D" stroke="#EFEAE5" stroke-width="0.2"/>
<path d="M33.1354 39.7477C33.1354 40.6513 32.403 41.3837 31.4994 41.3837C30.5959 41.3837 29.8634 40.6513 29.8634 39.7477C29.8634 38.8442 30.5959 38.1117 31.4994 38.1117C32.403 38.1117 33.1354 38.8442 33.1354 39.7477Z" fill="#9D6D3D" stroke="#EFEAE5" stroke-width="0.2"/>
</svg>
