<svg width="62" height="63" viewBox="0 0 62 63" fill="none" xmlns="http://www.w3.org/2000/svg">
<path d="M56.0824 0.253906H39.3516C36.1296 0.253906 33.5081 2.87545 33.5081 6.09827V22.8291C33.5081 26.0511 36.1296 28.6735 39.3516 28.6735H56.0824C59.3053 28.6735 61.9276 26.0519 61.9276 22.8291V6.09827C61.9268 2.87545 59.3053 0.253906 56.0824 0.253906ZM59.8927 22.8291C59.8927 24.9299 58.1832 26.6394 56.0816 26.6394H39.3516C37.2516 26.6394 35.5422 24.9299 35.5422 22.8291V6.09827C35.5422 3.99745 37.2516 2.288 39.3516 2.288H56.0824C58.1841 2.288 59.8935 3.99745 59.8935 6.09827V22.8291H59.8927Z" fill="#9D6D3D"/>
<path d="M52.3299 13.4453H43.1057C42.5443 13.4453 42.0886 13.9009 42.0886 14.4624C42.0886 15.0238 42.5443 15.4794 43.1057 15.4794H52.3299C52.8913 15.4794 53.3469 15.0238 53.3469 14.4624C53.3469 13.9009 52.8921 13.4453 52.3299 13.4453Z" fill="#9D6D3D"/>
<path d="M22.5744 0.253906H5.84436C2.62235 0.253906 0 2.87626 0 6.09908V22.8291C0 26.0519 2.62154 28.6743 5.84436 28.6743H22.5752C25.7972 28.6743 28.4195 26.0519 28.4195 22.8291V6.09827C28.4187 2.87626 25.7972 0.253906 22.5744 0.253906ZM26.3846 22.8283C26.3846 24.9299 24.6752 26.6394 22.5744 26.6394H5.84436C3.74355 26.6394 2.03409 24.9299 2.03409 22.8283V6.09827C2.03409 3.99664 3.74355 2.28719 5.84436 2.28719H22.5752C24.676 2.28719 26.3855 3.99664 26.3855 6.09827V22.8283H26.3846Z" fill="#9D6D3D"/>
<path d="M18.8219 13.4473H15.2256V9.85103C15.2256 9.28962 14.7699 8.83398 14.2085 8.83398C13.6471 8.83398 13.1915 9.28962 13.1915 9.85103V13.4473H9.59603C9.03462 13.4473 8.57898 13.9029 8.57898 14.4644C8.57898 15.0258 9.03462 15.4814 9.59603 15.4814H13.1915V19.0769C13.1915 19.6383 13.6471 20.0939 14.2085 20.0939C14.7699 20.0939 15.2256 19.6383 15.2256 19.0769V15.4814H18.8219C19.3833 15.4814 19.8389 15.0258 19.8389 14.4644C19.8389 13.9029 19.3833 13.4473 18.8219 13.4473Z" fill="#9D6D3D"/>
<path d="M56.0824 33.834H39.3515C36.1287 33.834 33.5063 36.4555 33.5063 39.6775V56.4084C33.5063 59.6312 36.1287 62.2535 39.3515 62.2535H56.0824C59.3052 62.2535 61.9275 59.6312 61.9275 56.4084V39.6775C61.9267 36.4555 59.3052 33.834 56.0824 33.834ZM59.8926 56.4075C59.8926 58.5092 58.1832 60.2186 56.0815 60.2186H39.3515C37.2499 60.2186 35.5404 58.5092 35.5404 56.4075V39.6775C35.5404 37.5775 37.2499 35.8681 39.3515 35.8681H56.0824C58.184 35.8681 59.8934 37.5775 59.8934 39.6775V56.4075H59.8926Z" fill="#9D6D3D"/>
<path d="M51.6986 44.0634C51.3015 43.6664 50.6579 43.6664 50.2601 44.0634L47.7175 46.606L45.1748 44.0634C44.7778 43.6664 44.1342 43.6664 43.7363 44.0634C43.3385 44.4605 43.3393 45.1041 43.7363 45.5019L46.2789 48.0446L43.7363 50.5872C43.3393 50.9842 43.3393 51.6278 43.7363 52.0257C43.9349 52.2242 44.1944 52.3235 44.4556 52.3235C44.7168 52.3235 44.9763 52.2242 45.1748 52.0257L47.7175 49.4831L50.2601 52.0257C50.4586 52.2242 50.7182 52.3235 50.9793 52.3235C51.2405 52.3235 51.5001 52.2242 51.6986 52.0257C52.0956 51.6286 52.0956 50.985 51.6986 50.5872L49.156 48.0446L51.6986 45.5019C52.0956 45.1041 52.0956 44.4605 51.6986 44.0634Z" fill="#9D6D3D"/>
<path d="M22.5752 33.834H5.84517C2.62235 33.834 0 36.4555 0 39.6775V56.4084C0 59.6312 2.62235 62.2535 5.84517 62.2535H22.5752C25.7972 62.2535 28.4187 59.6312 28.4187 56.4084V39.6775C28.4187 36.4555 25.7972 33.834 22.5752 33.834ZM26.3846 56.4075C26.3846 58.5092 24.676 60.2186 22.5752 60.2186H5.84517C3.74355 60.2186 2.03409 58.5092 2.03409 56.4075V39.6775C2.03409 37.5775 3.74355 35.8681 5.84517 35.8681H22.5752C24.676 35.8681 26.3846 37.5775 26.3846 39.6775V56.4075Z" fill="#9D6D3D"/>
<path d="M16.752 44.0637L10.2282 50.5875C9.83116 50.9845 9.83116 51.6281 10.2282 52.026C10.4267 52.2245 10.6871 52.3238 10.9475 52.3238C11.2078 52.3238 11.4682 52.2245 11.6667 52.026L18.1905 45.5022C18.5875 45.1052 18.5875 44.4616 18.1905 44.0637C17.7934 43.6659 17.149 43.6667 16.752 44.0637Z" fill="#9D6D3D"/>
<path d="M17.3346 52.3215C17.9713 52.3215 18.4875 51.8053 18.4875 51.1685C18.4875 50.5318 17.9713 50.0156 17.3346 50.0156C16.6978 50.0156 16.1816 50.5318 16.1816 51.1685C16.1816 51.8053 16.6978 52.3215 17.3346 52.3215Z" fill="#9D6D3D"/>
<path d="M11.0833 46.0715C11.7201 46.0715 12.2363 45.5553 12.2363 44.9185C12.2363 44.2818 11.7201 43.7656 11.0833 43.7656C10.4466 43.7656 9.93042 44.2818 9.93042 44.9185C9.93042 45.5553 10.4466 46.0715 11.0833 46.0715Z" fill="#9D6D3D"/>
</svg>
