<svg width="61" height="63" viewBox="0 0 61 63" fill="none" xmlns="http://www.w3.org/2000/svg">
<path d="M57.6122 13.6888C57.6122 13.0366 58.1917 12.457 58.8439 12.457C59.2317 12.457 59.5353 12.5852 59.7415 12.7913C59.9476 12.9974 60.0757 13.3011 60.0757 13.6888V15.6645C60.0757 16.3167 59.4962 16.8962 58.8439 16.8962C58.1917 16.8962 57.6122 16.3167 57.6122 15.6645V13.6888Z" fill="#9D6D3D" stroke="#EFEAE5" stroke-width="0.5"/>
<path d="M60.0758 35.4211L60.0758 35.4225L60.1745 53.4987C60.1745 53.4989 60.1745 53.4991 60.1745 53.4993C60.1742 54.1513 59.5948 54.7304 58.9428 54.7304H56.3744H56.1244V54.9804V60.7099C56.1244 61.3621 55.5448 61.9417 54.8926 61.9417H50.9412C50.289 61.9417 49.7095 61.3621 49.7095 60.7099V54.9804V54.7304H49.4595H11.7239H11.4739V54.9804V60.6111C11.4739 61.2634 10.8943 61.8429 10.2421 61.8429H6.29071C5.63851 61.8429 5.05895 61.2634 5.05895 60.6111V54.8817V54.6317H4.80895H2.24055C1.58835 54.6317 1.00879 54.0521 1.00879 53.3999V35.3224V6.27975C1.00879 3.05916 3.56404 0.503906 6.78464 0.503906H54.2999C57.5205 0.503906 60.0758 3.05916 60.0758 6.27975V8.15665C60.0758 8.80886 59.4962 9.38842 58.844 9.38842C58.1918 9.38842 57.6122 8.80886 57.6122 8.15665V6.27975C57.6122 4.46235 56.1173 2.96744 54.2999 2.96744H6.88342C5.06601 2.96744 3.5711 4.46235 3.5711 6.27975V33.8406V34.0906H3.8211H5.89558H6.14558V33.8406V31.0746C6.14558 27.3601 9.09596 24.4097 12.8105 24.4097H17.9473H18.1973V24.1597V21.8877C18.1973 19.4574 20.1598 17.4948 22.5901 17.4948H38.5932C41.0235 17.4948 42.9861 19.4574 42.9861 21.8877V24.1597V24.4097H43.2361H48.3729C52.0874 24.4097 55.0378 27.3601 55.0378 31.0746V33.8406V34.0906H55.2878H57.3622H57.6122V33.8406V20.7023C57.6122 20.0501 58.1918 19.4705 58.844 19.4705C59.4962 19.4705 60.0758 20.0501 60.0758 20.7023L60.0758 35.4211ZM40.2725 24.5085H40.5225V24.2585V21.9865C40.5225 20.969 39.7286 20.0571 38.5932 20.0571H22.5901C21.5727 20.0571 20.6608 20.851 20.6608 21.9865V24.2585V24.5085H20.9108H40.2725ZM52.3242 34.0906H52.5742V33.8406V31.0746C52.5742 28.7633 50.6842 26.8733 48.3729 26.8733H41.8531H19.429H12.8105C10.4992 26.8733 8.60911 28.7633 8.60911 31.0746V33.8406V34.0906H8.85911H52.3242ZM8.76032 59.4782H9.01032V59.2282V54.9804V54.7304H8.76032H7.77248H7.52248V54.9804V59.2282V59.4782H7.77248H8.76032ZM53.4109 59.4782H53.6609V59.2282V54.9804V54.7304H53.4109H52.423H52.173V54.9804V59.2282V59.4782H52.423H53.4109ZM3.47232 52.0169V52.2669H3.72232H6.29071H10.2421H50.9412H54.8926H57.3622H57.6122V52.0169V36.9029V36.6529H57.3622H3.72232H3.47232V36.9029V52.0169Z" fill="#9D6D3D" stroke="#EFEAE5" stroke-width="0.5"/>
</svg>
