<svg width="68" height="63" viewBox="0 0 68 63" fill="none" xmlns="http://www.w3.org/2000/svg">
<path d="M5.00064 59.191L5.0001 59.1906C4.19511 58.6017 3.66751 57.739 3.51874 56.7571L3.51865 56.7565L0.293299 35.7997C0.293285 35.7996 0.293271 35.7995 0.293257 35.7994C0.144276 34.8156 0.382514 33.8337 0.970843 33.0294C1.55967 32.2244 2.42244 31.6968 3.40434 31.548L3.40488 31.5479L8.31428 30.7933C9.29005 30.6443 10.28 30.8825 11.0843 31.4708C11.8893 32.0597 12.4169 32.9224 12.5656 33.9043L12.5657 33.905L15.799 54.8538C15.799 54.8539 15.799 54.8539 15.7991 54.854C15.9481 55.8378 15.7098 56.8198 15.1215 57.6241C14.5327 58.4291 13.6699 58.9567 12.688 59.1054L12.6874 59.1055L7.77779 59.8602L7.77777 59.8601L7.77025 59.8615C7.57218 59.8982 7.3889 59.913 7.19611 59.913C6.41475 59.913 5.64847 59.6675 5.00064 59.191ZM8.88033 33.4342C8.87853 33.4342 8.87667 33.4342 8.87473 33.4342C8.83923 33.4341 8.78067 33.4341 8.71849 33.4457L3.81615 34.1993C3.81568 34.1994 3.81521 34.1995 3.81474 34.1995C3.44515 34.2529 3.22467 34.4849 3.12957 34.6223C3.04418 34.7457 2.88225 35.0198 2.94534 35.3925L6.17801 56.3373C6.17808 56.3378 6.17815 56.3383 6.17822 56.3388C6.23155 56.7083 6.46362 56.9288 6.60097 57.0239C6.7243 57.1093 6.99842 57.2712 7.37111 57.2081L12.2762 56.4541C12.2766 56.4541 12.277 56.454 12.2775 56.4539C12.6471 56.4007 12.8676 56.1685 12.9628 56.0312C13.0481 55.9078 13.2101 55.6337 13.147 55.2609L9.91431 34.3161C9.91424 34.3157 9.91417 34.3152 9.9141 34.3147C9.86109 33.9473 9.63144 33.7273 9.49379 33.6313C9.37797 33.5475 9.16941 33.4342 8.88033 33.4342Z" fill="#9D6D3D" stroke="#EFEAE5" stroke-width="0.5"/>
<path d="M14.5852 57.5962L14.5852 57.5962C13.8745 57.3816 13.4739 56.6311 13.6875 55.9302L13.6877 55.9296C13.9016 55.2212 14.6511 54.8249 15.3552 55.0324C18.9807 56.1256 22.9663 57.2368 26.2207 58.0551C27.8477 58.4643 29.2943 58.8008 30.4229 59.0252C30.987 59.1374 31.4744 59.2222 31.8665 59.2739C32.2514 59.3247 32.5664 59.3469 32.7738 59.3232L32.7893 59.3215L32.8046 59.3178C33.0225 59.2647 33.3938 59.1142 33.8722 58.8977C34.358 58.6779 34.974 58.3806 35.6917 58.0225C37.1274 57.3061 38.9772 56.3427 41.0195 55.26C45.1043 53.0944 49.9655 50.4482 53.8382 48.3391C54.2154 48.1342 54.5903 47.9304 54.9621 47.7283C58.2948 45.9171 61.3657 44.2481 63.4079 43.177L63.4091 43.1763C63.8584 42.9374 64.1527 42.4888 64.2001 41.9777L64.2001 41.9777L64.2005 41.9718C64.2187 41.7084 64.1939 41.1622 63.6715 40.777C62.7867 40.1096 60.8774 39.0896 57.915 39.5466L57.9149 39.5467L43.2177 41.8188C42.4814 41.9325 41.8056 41.4316 41.6916 40.7006C41.578 39.9721 42.0792 39.2888 42.8096 39.1748C42.8097 39.1748 42.8097 39.1748 42.8098 39.1748L57.5065 36.9028C61.4509 36.2959 64.0775 37.7345 65.278 38.6426L65.2788 38.6432C66.3847 39.4726 66.9762 40.8029 66.8638 42.1967L66.8638 42.1973C66.7514 43.6363 65.9203 44.8869 64.6456 45.5543C62.7148 46.5641 59.8364 48.1296 56.6956 49.8378C56.1754 50.1206 55.6481 50.4074 55.1167 50.6963L55.1166 50.6963C47.9701 54.5854 42.8444 57.3527 39.3178 59.1765C37.5543 60.0886 36.1937 60.763 35.1819 61.2234C34.1595 61.6886 33.52 61.9222 33.1842 61.9737L33.1841 61.9736L33.176 61.9751C33.0719 61.9947 32.9393 62.0026 32.7613 62.0026C31.9557 62.0026 30.6428 61.7989 29.0526 61.4685C27.4687 61.1394 25.6295 60.689 23.7809 60.2044C20.0842 59.2354 16.3596 58.1321 14.5852 57.5962Z" fill="#9D6D3D" stroke="#EFEAE5" stroke-width="0.5"/>
<path d="M23.1256 49.8624L23.1255 49.8613C23.0118 49.1328 23.5132 48.4495 24.2437 48.3356L42.6903 45.4836L42.6916 45.4833C43.2019 45.4017 43.4372 45.0416 43.5162 44.8934L43.5166 44.8927C43.6075 44.7209 43.7361 44.3535 43.5363 43.9433L43.5356 43.9419C42.7595 42.3736 41.813 41.2235 40.6948 40.5204C39.5721 39.8143 38.295 39.571 36.8865 39.7857L36.886 39.7858L28.7669 41.041C27.1438 41.2913 25.5212 40.7838 24.3138 39.6371L24.3137 39.637C23.609 38.9686 22.5471 38.0858 21.2775 37.4276C20.0086 36.7698 18.5137 36.327 16.9534 36.5683L12.7669 37.2118L12.7669 37.2118L12.7659 37.2119C12.6236 37.2344 12.4504 37.2572 12.2592 37.2802L12.2592 37.28L12.0556 37.2886C11.6948 37.3037 11.34 37.2667 11.0614 37.1152C10.7987 36.9722 10.5743 36.7114 10.4938 36.2046C10.3816 35.484 10.8793 34.8047 11.6017 34.6821H11.6165L11.6354 34.6792C11.6483 34.6772 11.6705 34.6737 11.7073 34.668C11.9668 34.6276 12.9534 34.4742 16.537 33.9244L16.5372 33.9244C20.7349 33.2762 24.343 35.9876 26.146 37.6956C26.7416 38.2647 27.55 38.5203 28.3505 38.3971L28.3506 38.3971L36.4697 37.1419C36.4698 37.1419 36.4698 37.1419 36.4698 37.1419C38.4782 36.8323 40.3139 37.1752 41.9082 38.118C43.505 39.0622 44.8753 40.6177 45.9314 42.7572C46.4598 43.8289 46.4458 45.0561 45.8939 46.1305C45.3349 47.2034 44.2911 47.949 43.0983 48.1354C43.0983 48.1355 43.0982 48.1355 43.0982 48.1355L24.6582 50.9864C24.5808 50.9941 24.5072 51.0004 24.4435 51.0004C23.7952 51.0004 23.2261 50.5254 23.1256 49.8624Z" fill="#9D6D3D" stroke="#EFEAE5" stroke-width="0.5"/>
<path d="M25.4008 29.4631L25.4007 29.463C24.5485 28.8439 24.1338 27.8186 24.3086 26.7837C24.3086 26.7836 24.3086 26.7835 24.3086 26.7834L25.5399 19.6261L25.5622 19.4965L25.4679 19.4047L20.2649 14.3367C20.2648 14.3366 20.2647 14.3365 20.2646 14.3364C19.5137 13.5998 19.2453 12.5312 19.5728 11.5265C19.9008 10.528 20.7445 9.8154 21.7863 9.66229C21.7864 9.66227 21.7865 9.66225 21.7866 9.66224L28.9758 8.62159L29.1059 8.60276L29.1641 8.48488L32.3814 1.97084C32.8482 1.03 33.7869 0.441406 34.8348 0.441406C35.8835 0.441406 36.8214 1.02283 37.2877 1.97016L37.2879 1.97045L40.5054 8.48488L40.5636 8.60276L40.6937 8.62159L47.8829 9.66224C47.883 9.66225 47.8831 9.66227 47.8832 9.66228C48.9251 9.81541 49.7688 10.5281 50.0968 11.5267C50.4242 12.5232 50.156 13.5996 49.4051 14.3363C49.4049 14.3364 49.4048 14.3366 49.4046 14.3367L44.2016 19.4047L44.1073 19.4965L44.1297 19.6261L45.3609 26.7834C45.361 26.7836 45.361 26.7838 45.361 26.784C45.5357 27.8188 45.1209 28.8439 44.2688 29.463C43.4162 30.0824 42.3184 30.1624 41.3857 29.6741L34.959 26.2979L34.8427 26.2369L34.7264 26.2979L28.3023 29.6728C28.3018 29.6731 28.3014 29.6733 28.3009 29.6735C27.8834 29.8857 27.446 29.9872 27.0095 29.9872C26.4417 29.9872 25.8817 29.8128 25.4008 29.4631ZM22.5486 12.2579L22.047 12.3306L22.41 12.6843L27.407 17.5543L27.4078 17.555C28.0544 18.1798 28.3461 19.0893 28.1931 19.9783L28.1931 19.9786L27.0173 26.8585L26.932 27.3577L27.3802 27.1218L33.553 23.8725L33.5532 23.8725C34.3541 23.4502 35.2996 23.4502 36.1005 23.8725L36.1007 23.8725L42.2735 27.1218L42.7217 27.3577L42.6363 26.8585L41.4606 19.9786L41.4605 19.9783C41.3077 19.0906 41.6062 18.1801 42.2469 17.554L47.2437 12.6843L47.6066 12.3306L47.1051 12.2579L40.2017 11.2569C40.2016 11.2569 40.2015 11.2569 40.2014 11.2569C39.3063 11.1258 38.542 10.5657 38.1412 9.75673L35.051 3.49685L34.8268 3.04274L34.6027 3.49685L31.5124 9.75673C31.5124 9.75676 31.5124 9.7568 31.5124 9.75683C31.1117 10.5653 30.3397 11.1259 29.4517 11.257L22.5486 12.2579Z" fill="#9D6D3D" stroke="#EFEAE5" stroke-width="0.5"/>
</svg>
