<svg width="122" height="65" viewBox="0 0 122 65" fill="none" xmlns="http://www.w3.org/2000/svg">
<path d="M60.0219 59.8978C60.0347 59.7956 60.0091 59.6806 59.9282 59.5741C59.7919 59.3995 59.6557 59.2335 59.5109 59.0759C57.075 55.865 51.3048 55.618 47.3571 56.2312C43.3116 56.8615 39.398 58.1305 35.3695 58.8417C33.1465 59.2335 30.8768 59.4506 28.624 59.2505C25.7921 58.9992 20.9162 57.3895 22.6409 53.5484C22.8453 53.097 22.232 52.7095 21.9638 53.1523C21.6231 53.7059 21.4527 54.2681 21.4059 54.8217C20.7756 56.508 21.7295 58.616 22.9177 59.8765C25.2896 62.3975 28.871 62.4316 32.0564 61.8226C36.5533 60.9667 40.9524 59.4762 45.3854 58.3392C50.0229 57.1511 54.3581 56.7721 58.3185 59.3697C59.2042 60.3705 59.7238 61.7247 59.6386 63.5218C59.6088 64.1648 60.5797 64.152 60.6308 63.5218C60.7543 62.0696 60.5159 60.8772 60.0219 59.8978ZM23.6629 59.1909C24.0419 59.4975 24.4337 59.7785 24.8425 60.0341C25.1917 60.281 25.5664 60.494 25.9752 60.6856C25.0724 60.3492 24.2846 59.8424 23.6629 59.1909Z" fill="white"/>
<path d="M58.7571 5.22694C58.6804 4.75851 58.097 4.85219 57.9437 5.21416C57.8287 5.29508 57.7521 5.4356 57.7776 5.6102C58.2333 8.74019 54.5497 9.47691 52.3523 8.74019C50.6745 8.17807 49.2181 7.01125 47.7148 6.10845C44.8957 4.40931 41.8679 3.05936 38.7251 2.09268C33.0315 0.342445 26.8227 -0.253744 20.9672 1.02806C15.725 2.17785 10.4658 5.09066 7.82979 9.94534C5.73036 13.812 5.96032 18.8328 9.35008 21.6775C1.87643 22.789 -1.1982 33.1711 0.420025 39.6781C2.08935 46.4065 9.65243 50.3882 16.1892 48.4719C16.6662 48.3314 16.6278 47.7352 16.3042 47.535C16.2914 47.5265 16.2744 47.5223 16.2616 47.5137C16.2446 47.5052 16.2275 47.4967 16.2062 47.4924C16.1935 47.4882 16.1849 47.4839 16.1722 47.4839C16.0955 47.4669 16.0104 47.4669 15.9167 47.4924C15.8698 47.5052 15.8272 47.518 15.7804 47.5308C12.5482 48.0844 9.86961 46.8409 7.85961 44.7457C7.84683 44.6563 7.79998 44.5626 7.71481 44.4817C7.31452 44.0814 6.95681 43.6555 6.60761 43.2169C5.16398 41.1516 4.22711 38.622 3.8694 36.2074C3.02622 30.4798 5.59409 24.4157 11.3388 22.4568C11.424 22.427 11.4921 22.3844 11.5432 22.329C11.6965 22.2737 11.803 22.1119 11.688 21.9415C11.6795 21.7414 11.573 21.5455 11.3899 21.4773C8.0342 15.9498 10.815 9.49821 15.8613 5.94662C21.1035 2.25877 27.7893 1.62 33.913 3.05511C37.158 3.81312 40.2582 5.09066 43.1923 6.65779C45.7261 8.01199 48.1279 9.88998 50.9342 10.648C54.5625 11.6147 59.4895 9.63873 58.7571 5.22694ZM8.40895 11.6956C8.23009 12.0661 8.02994 12.5132 7.84257 12.9902C8.1066 12.1342 8.47708 11.2825 8.93274 10.4649C8.73685 10.8652 8.56225 11.2783 8.40895 11.6956ZM23.8119 1.64129C23.7991 1.61999 23.7864 1.59444 23.7693 1.57741C24.2463 1.52205 24.719 1.4752 25.2002 1.44114C24.736 1.49224 24.2718 1.56037 23.8119 1.64129ZM32.9549 1.80737C33.6788 1.91809 34.3943 2.05437 35.1097 2.20767C35.3737 2.31839 35.6377 2.42059 35.9018 2.5228C34.9266 2.24174 33.9429 1.999 32.9549 1.80737Z" fill="white"/>
<path d="M60.6308 63.5257C60.6861 64.1559 61.6528 64.1687 61.623 63.5257C61.5378 61.7286 62.0574 60.3744 62.9432 59.3736C66.9078 56.776 71.2387 57.155 75.8762 58.3431C80.3093 59.4758 84.7083 60.9663 89.2052 61.8265C92.3906 62.4355 95.972 62.3972 98.344 59.8804C99.5321 58.6156 100.486 56.5119 99.8557 54.8256C99.8089 54.272 99.6386 53.7099 99.2979 53.1563C99.0253 52.7134 98.4164 53.1009 98.6208 53.5523C100.345 57.3934 95.4695 59.0032 92.6376 59.2544C90.3848 59.4546 88.1108 59.2374 85.8921 58.8456C81.8636 58.1344 77.9501 56.8654 73.9045 56.2351C69.9569 55.6177 64.1909 55.8647 61.7508 59.0798C61.606 59.2374 61.4697 59.4035 61.3334 59.5781C61.2483 59.6845 61.227 59.7995 61.2398 59.9017C60.7458 60.8769 60.5073 62.0693 60.6308 63.5257ZM95.2906 60.6895C95.6994 60.4979 96.0742 60.285 96.4234 60.038C96.8322 59.7782 97.224 59.5014 97.603 59.1948C96.977 59.8421 96.1934 60.3488 95.2906 60.6895Z" fill="white"/>
<path d="M70.3231 10.6353C73.1337 9.87732 75.5312 7.99933 78.065 6.64513C81.0034 5.07801 84.0993 3.80046 87.3443 3.04245C93.468 1.60734 100.154 2.24612 105.396 5.93397C110.442 9.48555 113.223 15.9372 109.867 21.4647C109.689 21.5371 109.578 21.7287 109.569 21.9289C109.454 22.1035 109.561 22.261 109.714 22.3164C109.765 22.3717 109.833 22.4143 109.919 22.4441C115.663 24.403 118.231 30.4671 117.388 36.1948C117.03 38.6094 116.093 41.1389 114.65 43.2043C114.301 43.6429 113.939 44.0687 113.543 44.469C113.457 44.5542 113.415 44.6436 113.398 44.7331C111.392 46.8282 108.713 48.0717 105.477 47.5181C105.43 47.5053 105.388 47.4968 105.341 47.4798C105.247 47.4542 105.162 47.4542 105.085 47.4713C105.072 47.4713 105.06 47.4755 105.051 47.4798C105.034 47.484 105.013 47.4926 104.996 47.5011C104.983 47.5096 104.966 47.5139 104.953 47.5224C104.634 47.7225 104.595 48.3187 105.068 48.4592C111.605 50.3713 119.168 46.3896 120.837 39.6655C122.456 33.1585 119.381 22.7763 111.907 21.6648C115.297 18.8244 115.531 13.8037 113.428 9.93268C110.792 5.07801 105.532 2.1652 100.29 1.01541C94.4347 -0.270658 88.2258 0.325531 82.5322 2.08003C79.3894 3.04671 76.3574 4.39666 73.5425 6.09579C72.0393 7.00285 70.5829 8.16542 68.905 8.72754C66.7077 9.46426 63.0241 8.72753 63.4797 5.59754C63.5053 5.42295 63.4286 5.28242 63.3136 5.20151C63.1603 4.84379 62.5769 4.75011 62.5003 5.21428C61.7763 9.63885 66.6991 11.6148 70.3231 10.6353ZM112.333 10.465C112.789 11.2826 113.159 12.1343 113.423 12.9903C113.236 12.5133 113.036 12.0705 112.857 11.6957C112.704 11.2784 112.529 10.8653 112.333 10.465ZM96.0657 1.44125C96.5426 1.47532 97.0196 1.51791 97.4965 1.57753C97.4795 1.59882 97.4667 1.62011 97.4539 1.6414C96.9898 1.56049 96.5299 1.49236 96.0657 1.44125ZM85.3641 2.52718C85.6281 2.42497 85.8921 2.32276 86.1562 2.21204C86.8716 2.05873 87.587 1.92246 88.311 1.81174C87.3187 1.99911 86.335 2.24186 85.3641 2.52718Z" fill="white"/>
<path d="M30.0106 40.0774C29.8658 39.3194 29.7977 38.5741 29.7977 37.8034C29.7977 37.5393 29.5677 37.2838 29.2909 37.2966C27.7664 37.3775 26.2759 37.2583 24.7855 36.9133C24.2617 36.7941 23.9849 37.3732 24.2915 37.7608C24.662 38.2249 25.0623 38.6508 25.4838 39.0596C25.173 39.3194 24.9047 39.6771 24.6449 39.9582C24.3426 40.2818 23.7421 40.7502 23.789 41.2314C23.8017 41.3762 23.8954 41.504 24.0402 41.5338C24.0871 41.5636 24.1424 41.5764 24.2148 41.5721C24.5981 41.5381 24.9813 41.4869 25.3646 41.4188C25.5988 41.3762 25.8756 41.3549 26.0715 41.2187C27.1532 41.01 28.2221 40.9078 29.3378 40.8695C29.4698 40.8652 29.572 40.8013 29.6487 40.7119C29.9212 40.6523 30.0617 40.3372 30.0106 40.0774Z" fill="white"/>
<path d="M98.1451 37.0441C98.2686 36.7418 97.8939 36.3755 97.5958 36.4948C96.808 36.8014 95.9989 37.0527 95.1642 37.1804C94.6106 37.2656 94.0442 37.3039 93.4821 37.2996C93.2521 37.2996 92.9838 37.2443 92.7369 37.2571C92.6815 37.2485 92.6261 37.2571 92.5708 37.2783C92.5623 37.2783 92.5537 37.2784 92.5452 37.2826C92.179 37.3763 92.0555 37.5637 91.9916 37.9299C91.8596 38.6709 91.9107 39.7227 92.1875 40.4211C92.2045 40.468 92.2344 40.5063 92.2684 40.5361C92.2556 40.6894 92.3579 40.8683 92.541 40.8725C94.0911 40.8895 95.6454 41.1791 97.1827 41.1663C97.5404 41.1621 97.6299 40.732 97.3956 40.5361C97.3744 40.4722 97.3445 40.4126 97.2807 40.3572C96.9357 40.0634 96.6461 39.744 96.3949 39.382C97.2381 38.8668 97.7789 37.9384 98.1451 37.0441Z" fill="white"/>
<path d="M17.7893 24.9948H18.2838C18.7984 24.9948 19.1843 24.9546 19.4416 24.8742C19.6828 24.8058 19.8718 24.6772 20.0084 24.4883C20.1491 24.2993 20.2195 24.0742 20.2195 23.8129C20.2195 23.5235 20.1491 23.2762 20.0084 23.0712C19.8677 22.8662 19.6748 22.7295 19.4295 22.6611C19.1883 22.6049 18.8305 22.5767 18.3562 22.5767H17.7893V24.9948ZM15.2266 30.0842V28.4681H16.0949V22.5767H15.2266V20.9607H18.3562C18.9793 20.9607 19.4677 20.9948 19.8215 21.0632C20.1793 21.1315 20.4949 21.2521 20.7682 21.425C21.1381 21.6662 21.4235 21.9898 21.6245 22.3958C21.8255 22.8019 21.926 23.2601 21.926 23.7707C21.926 24.3134 21.8114 24.8058 21.5823 25.2481C21.3572 25.6903 21.0476 26.0219 20.6537 26.243C20.4044 26.3797 20.1089 26.4762 19.7672 26.5325C19.4255 26.5888 18.9471 26.6169 18.3321 26.6169H17.7893V28.4681H18.6577V30.0842H15.2266ZM22.8004 30.0842V28.4681H23.6687V22.5767H22.8004V20.9607H28.5711V23.4451H26.8345V22.5767H25.3631V24.7234H27.8355V26.3395H25.3631V28.4681H26.8345V27.5998H28.5711V30.0842H22.8004ZM36.7419 23.5777C36.4324 23.1757 36.0886 22.8843 35.7108 22.7034C35.3329 22.5184 34.8786 22.426 34.348 22.426C33.3952 22.426 32.6374 22.7596 32.0746 23.427C31.8415 23.6963 31.6565 24.0159 31.5199 24.3858C31.3872 24.7556 31.3209 25.1275 31.3209 25.5013C31.3209 26.0601 31.4575 26.5787 31.7309 27.0571C32.0043 27.5355 32.3761 27.9154 32.8465 28.1968C33.3168 28.4742 33.8294 28.6129 34.3841 28.6129C34.8223 28.6129 35.2143 28.5305 35.56 28.3656C35.9098 28.2008 36.2716 27.9254 36.6454 27.5395H38.6353C38.2776 28.3717 37.7188 29.0309 36.959 29.5174C36.2032 30.0038 35.357 30.247 34.4203 30.247C33.9821 30.247 33.554 30.1907 33.1359 30.0782C32.7218 29.9656 32.3399 29.8068 31.9902 29.6018C31.6405 29.3968 31.3168 29.1495 31.0194 28.8601C30.7259 28.5666 30.4767 28.247 30.2716 27.9013C30.0666 27.5516 29.9058 27.1717 29.7892 26.7616C29.6767 26.3476 29.6204 25.9234 29.6204 25.4893C29.6204 24.8541 29.745 24.2471 29.9942 23.6682C30.2435 23.0893 30.5772 22.5908 30.9952 22.1727C31.4133 21.7546 31.9118 21.421 32.4907 21.1717C33.0696 20.9225 33.6766 20.7979 34.3118 20.7979C34.8866 20.7979 35.4414 20.8923 35.9761 21.0813C36.3499 21.2179 36.6977 21.435 37.0193 21.7325V20.9607H38.6353V23.5777H36.7419ZM46.3901 20.9607V23.4451H44.6534V22.5767H43.7911V28.4681H44.6594V30.0842H41.2343V28.4681H42.1027V22.5767H41.2403V23.4451H39.5037V20.9607H46.3901ZM49.5981 26.1104H51.5518L50.575 23.3425L49.5981 26.1104ZM45.9077 30.0842V28.4681H46.776L49.2363 22.5767H48.3619V20.9607H51.2383L54.392 28.4742V28.4681H55.2603V30.0842H51.6664V28.4681H52.5347L52.2272 27.7264H48.983L48.6634 28.4681H49.5317V30.0842H45.9077ZM58.2754 28.4681H59.1134C59.7045 28.4681 60.1346 28.3777 60.4042 28.1968C60.6733 28.0119 60.8079 27.7184 60.8079 27.3164C60.8079 26.9144 60.6652 26.6169 60.3799 26.4239C60.0984 26.231 59.6645 26.1345 59.0772 26.1345H58.2754V28.4681ZM58.2754 24.4762H58.8179C59.3328 24.4762 59.7045 24.4038 59.9336 24.2591C60.1627 24.1104 60.2773 23.8712 60.2773 23.5415C60.2773 22.9225 59.8412 22.6129 58.9687 22.6129H58.2754V24.4762ZM55.7126 30.0842V28.4681H56.5809V22.5767H55.7126V20.9607H58.4623C59.1577 20.9607 59.6802 20.9948 60.0303 21.0632C60.3838 21.1275 60.6993 21.2521 60.977 21.437C61.2904 21.6501 61.5335 21.9275 61.7064 22.2692C61.8793 22.6069 61.9658 22.9807 61.9658 23.3908C61.9658 23.8209 61.8874 24.1687 61.7307 24.434C61.5778 24.6953 61.3185 24.9204 60.9527 25.1094C61.2584 25.234 61.4914 25.3526 61.6524 25.4651C61.8172 25.5777 61.9636 25.7224 62.0923 25.8993C62.3699 26.2772 62.5083 26.7656 62.5083 27.3646C62.5083 27.847 62.4001 28.2852 62.183 28.6792C61.9658 29.0732 61.6604 29.3847 61.2661 29.6139C60.7236 29.9274 59.9737 30.0842 59.0172 30.0842H55.7126ZM65.9334 24.9948H66.4282C66.9427 24.9948 67.3285 24.9546 67.5857 24.8742C67.8272 24.8058 68.0158 24.6772 68.1525 24.4883C68.2935 24.2993 68.3637 24.0742 68.3637 23.8129C68.3637 23.5235 68.2935 23.2762 68.1525 23.0712C68.012 22.8662 67.8191 22.7295 67.5738 22.6611C67.3328 22.6049 66.9746 22.5767 66.5002 22.5767H65.9334V24.9948ZM63.3707 30.0842V28.4681H64.239V22.5767H63.3707V20.9607H66.5002C67.1237 20.9607 67.6121 20.9948 67.9656 21.0632C68.3237 21.1315 68.6393 21.2521 68.9122 21.425C69.2823 21.6662 69.5676 21.9898 69.7686 22.3958C69.9696 22.8019 70.0701 23.2601 70.0701 23.7707C70.0701 24.3134 69.9556 24.8058 69.7265 25.2481C69.5012 25.6903 69.192 26.0219 68.7977 26.243C68.5486 26.3797 68.253 26.4762 67.9115 26.5325C67.5695 26.5888 67.0913 26.6169 66.4764 26.6169H65.9334V28.4681H66.8017V30.0842H63.3707ZM72.7053 26.1104H74.6591L73.6822 23.3425L72.7053 26.1104ZM69.0149 30.0842V28.4681H69.8832L72.3437 22.5767H71.469V20.9607H74.3456L77.4995 28.4742V28.4681H78.3678V30.0842H74.7736V28.4681H75.6419L75.3345 27.7264H72.0903L71.7705 28.4681H72.6388V30.0842H69.0149ZM79.676 22.5767H78.8077V20.9607H82.2387V22.5767H81.3704V28.4681H84.3373V22.5767H83.469V20.9607H86.8941V22.5767H86.0258V28.4681H87.3826V31.8751H86.2008L85.8508 30.0842H78.8077V28.4681H79.676V22.5767ZM89.3423 22.5767H88.474V20.9607H91.8932V22.5767H91.0249V27.2802L94.9865 20.9607H97.5736V22.5767H96.7053V28.4681H97.5736V30.0842H94.1544V28.4681H95.0227V23.7586L91.0611 30.0842H88.474V28.4681H89.3423V22.5767ZM103.254 22.5767H102.5C101.772 22.5767 101.282 22.6752 101.028 22.8722C100.719 23.1094 100.564 23.4632 100.564 23.9335C100.564 24.4159 100.711 24.7677 101.005 24.9888C101.298 25.2058 101.772 25.3144 102.428 25.3144H103.254V22.5767ZM104.948 28.4681H105.817V30.0842H102.386V28.4681H103.254V26.5868L100.86 30.0842H98.7736V28.4681H99.9553L101.24 26.7134C100.898 26.6249 100.626 26.5365 100.425 26.4481C100.229 26.3556 100.036 26.233 99.8467 26.0802C99.1875 25.5496 98.8579 24.8179 98.8579 23.8853C98.8579 22.9566 99.1573 22.223 99.7565 21.6843C100.058 21.4149 100.397 21.228 100.776 21.1235C101.153 21.0149 101.666 20.9607 102.313 20.9607H105.817V22.5767H104.948V28.4681Z" fill="white"/>
<path d="M33.7642 43.4897V41.8737H34.6325V35.9823H33.7642V34.3662H36.9541L39.4144 41.2767L41.8445 34.3662H45.0344V35.9823H44.1661V41.8737H45.0344V43.4897H41.6093V41.8737H42.4776V36.6456L40.0958 43.4897H38.7088L36.327 36.6456V41.8737H37.1953V43.4897H33.7642ZM46.2464 43.4897V41.8737H47.1148V35.9823H46.2464V34.3662H52.0172V36.8506H50.2806V35.9823H48.8092V38.129H51.2816V39.7451H48.8092V41.8737H50.2806V41.0053H52.0172V43.4897H46.2464ZM55.78 39.4013V41.8737H56.3951C56.8534 41.8737 57.2493 41.8395 57.583 41.7712C57.8525 41.7028 58.0654 41.5661 58.2222 41.3611C58.3789 41.1521 58.4572 40.9028 58.4572 40.6134C58.4572 40.3521 58.3789 40.125 58.2222 39.932C58.0693 39.739 57.8602 39.6084 57.5949 39.54C57.2574 39.4476 56.8332 39.4013 56.3227 39.4013H55.78ZM53.2172 43.4897V41.8737H54.0855V35.9823H53.2172V34.3662H59.5849V36.8506H57.8483V35.9823H55.78V37.7853H56.3468C57.0141 37.7853 57.5267 37.8114 57.8845 37.8637C58.2464 37.9159 58.5577 38.0124 58.8192 38.1531C59.2374 38.3742 59.5649 38.7099 59.8021 39.1601C60.0431 39.6064 60.164 40.1028 60.164 40.6496C60.164 41.1682 60.0576 41.6325 59.8442 42.0425C59.6313 42.4526 59.3298 42.7782 58.9397 43.0194C58.6582 43.1963 58.3269 43.3189 57.9449 43.3872C57.5629 43.4556 57.0383 43.4897 56.3709 43.4897H53.2172ZM61.1771 43.4897V41.8737H62.0454V35.9823H61.1771V34.3662H66.9478V36.8506H65.2112V35.9823H63.7399V38.129H66.2119V39.7451H63.7399V41.8737H65.2112V41.0053H66.9478V43.4897H61.1771ZM67.4422 43.4897V41.8737H68.3105L70.777 35.9823H69.9083V34.3662H72.7849L75.9264 41.8737H76.7947V43.4897H73.2793V41.8737H74.1417L72.1214 36.6878L70.0952 41.8737H70.9576V43.4897H67.4422ZM78.1638 35.9823H77.2955V34.3662H80.7142V35.9823H79.8459V40.6857L83.808 34.3662H86.3946V35.9823H85.5263V41.8737H86.3946V43.4897H82.9759V41.8737H83.8442V37.1642L79.8821 43.4897H77.2955V41.8737H78.1638V35.9823Z" fill="white"/>
</svg>
